<svg width="64" height="42" viewBox="0 0 64 42" fill="none" xmlns="http://www.w3.org/2000/svg">
<path d="M35.9382 0.532017C37.1548 0.532017 38.2404 0.796191 39.1949 1.32454C40.1682 1.85289 40.9262 2.63562 41.469 3.67275C42.0118 4.70988 42.2832 5.96226 42.2832 7.42989V16.9695H39.1107V7.92889C39.1107 6.48082 38.7644 5.37521 38.0719 4.61204C37.3794 3.8293 36.4342 3.43793 35.2364 3.43793C34.0385 3.43793 33.084 3.8293 32.3727 4.61204C31.6802 5.37521 31.334 6.48082 31.334 7.92889V16.9695H28.1334V0.796191H31.334V2.64541C31.858 1.98008 32.5225 1.46152 33.3273 1.08972C34.1508 0.717917 35.0211 0.532017 35.9382 0.532017Z" fill="white"/>
<path d="M57.8483 0.796191V16.9695H54.6478V15.0616C54.1424 15.7269 53.478 16.2553 52.6544 16.6466C51.8496 17.0184 50.9887 17.2043 50.0715 17.2043C48.855 17.2043 47.76 16.9402 46.7868 16.4118C45.8322 15.8835 45.0742 15.1007 44.5127 14.0636C43.9699 13.0265 43.6985 11.7741 43.6985 10.3065V0.796191H46.871V9.80746C46.871 11.2555 47.2173 12.3709 47.9098 13.1537C48.6023 13.9168 49.5475 14.2984 50.7453 14.2984C51.9432 14.2984 52.8884 13.9168 53.5809 13.1537C54.2921 12.3709 54.6478 11.2555 54.6478 9.80746V0.796191H57.8483Z" fill="white"/>
<path d="M31.8674 28.2923V37.2449C31.8674 37.8515 31.9984 38.2918 32.2604 38.5657C32.5412 38.8201 33.0091 38.9473 33.6642 38.9473H35.6294V41.7358H33.1027C31.6615 41.7358 30.5572 41.3836 29.7898 40.6791C29.0224 39.9747 28.6388 38.8299 28.6388 37.2449V28.2923H26.8139V25.5625H28.6388V21.5412H31.8674V25.5625H35.6294V28.2923H31.8674Z" fill="white"/>
<path d="M39.2531 27.9107C39.721 27.0888 40.3386 26.4529 41.106 26.0028C41.8921 25.5332 42.8186 25.2983 43.8854 25.2983V28.7619H43.0712C41.8172 28.7619 40.8627 29.0946 40.2076 29.7599C39.5712 30.4253 39.2531 31.5798 39.2531 33.2236V41.7358H36.0525V25.5625H39.2531V27.9107Z" fill="white"/>
<path d="M45.929 23.4198C45.3487 23.4198 44.8621 23.2143 44.4691 22.8034C44.076 22.3924 43.8795 21.8836 43.8795 21.277C43.8795 20.6704 44.076 20.1616 44.4691 19.7507C44.8621 19.3397 45.3487 19.1343 45.929 19.1343C46.4905 19.1343 46.9677 19.3397 47.3608 19.7507C47.7538 20.1616 47.9504 20.6704 47.9504 21.277C47.9504 21.8836 47.7538 22.3924 47.3608 22.8034C46.9677 23.2143 46.4905 23.4198 45.929 23.4198ZM47.5012 25.5625V41.7358H44.3006V25.5625H47.5012Z" fill="white"/>
<path d="M48.1096 33.5758C48.1096 31.9516 48.4278 30.5133 49.0641 29.2609C49.7192 28.0086 50.5989 27.0399 51.7032 26.355C52.8262 25.6506 54.0615 25.2983 55.4091 25.2983C56.6257 25.2983 57.6831 25.5527 58.5815 26.0615C59.4987 26.5507 60.2286 27.1671 60.7714 27.9107V25.5625H64V41.7358H60.7714V39.3289C60.2286 40.0921 59.4893 40.7281 58.5535 41.2368C57.6176 41.7456 56.5508 42 55.3529 42C54.024 42 52.8075 41.6478 51.7032 40.9433C50.5989 40.2193 49.7192 39.2213 49.0641 37.9493C48.4278 36.6578 48.1096 35.2 48.1096 33.5758ZM60.7714 33.6345C60.7714 32.5191 60.5468 31.5505 60.0976 30.7286C59.6671 29.9067 59.0962 29.2805 58.385 28.85C57.6738 28.4195 56.9064 28.2042 56.0829 28.2042C55.2593 28.2042 54.492 28.4195 53.7807 28.85C53.0695 29.2609 52.4893 29.8773 52.0401 30.6992C51.6096 31.5015 51.3944 32.4604 51.3944 33.5758C51.3944 34.6912 51.6096 35.6696 52.0401 36.5111C52.4893 37.3525 53.0695 37.9983 53.7807 38.4483C54.5107 38.8788 55.2781 39.0941 56.0829 39.0941C56.9064 39.0941 57.6738 38.8788 58.385 38.4483C59.0962 38.0178 59.6671 37.3916 60.0976 36.5698C60.5468 35.7283 60.7714 34.7499 60.7714 33.6345Z" fill="white"/>
<path d="M21.1527 7.48219C21.0119 7.51338 19.1226 7.96506 16.7019 9.5315C16.3382 7.72131 15.2619 4.33198 12.0766 0.884878L11.2592 0L10.4418 0.886034C7.24531 4.34584 6.17343 7.74442 5.81313 9.56616C3.38339 7.97315 1.50873 7.51569 1.37137 7.48335L0 7.16913V8.61081C0 17.0322 4.41924 22.4731 11.2592 22.4731C17.9933 22.4731 22.5184 16.9028 22.5184 8.61081V7.17606L21.1527 7.48219ZM7.88032 10.9651C7.88258 10.927 8.05146 7.384 11.2592 3.41937C14.4276 7.34703 14.637 10.9212 14.637 10.9212V11.0656C13.3743 12.1421 12.2371 13.3647 11.248 14.7091C10.256 13.3885 9.12679 12.1827 7.88032 11.113V10.9651ZM11.2592 20.1628C5.27382 20.1628 2.75963 15.3156 2.32278 10.2697C4.18618 11.0991 7.52003 13.0722 10.3247 17.3429L11.2716 18.7858L12.2005 17.3302C14.932 13.0468 18.3086 11.0795 20.19 10.2581C19.7419 15.1423 17.2311 20.1628 11.2592 20.1628Z" fill="#00F060"/>
</svg>
